<?xml version="1.0" standalone="no"?>
<!DOCTYPE svg PUBLIC "-//W3C//DTD SVG 20010904//EN" "http://www.w3.org/TR/2001/REC-SVG-20010904/DTD/svg10.dtd">
<svg version="1.0" xmlns="http://www.w3.org/2000/svg" width="377.000000pt" height="409.000000pt" viewBox="0 0 377.000000 409.000000" preserveAspectRatio="xMidYMid meet">
    <defs>
        <linearGradient id="gradient1" x1="0%" y1="0%" x2="100%" y2="0%">
            <stop offset="0%" style="stop-color:#d77277;stop-opacity:1" />
            <stop offset="100%" style="stop-color:#e08f84;stop-opacity:1" />
        </linearGradient>
    </defs>
    <rect width="100%" height="100%" fill="url(#gradient1)" /> <!-- Solid background color -->
    <g transform="translate(0.000000,409.000000) scale(0.100000,-0.100000)" fill="#3a4357" stroke="none">
        <path d="M0 2045 l0 -2045 1885 0 1885 0 0 2045 0 2045 -1885 0 -1885 0 0 -2045z m2930 1425 l0 -340 -650 0 -650 0 0 -360 0 -360 575 0 575 0 0 -325 0 -325 -575 0 -575 0 0 -390 0 -390 650 0 650 0 0 -340 0 -340 -1075 0 -1075 0 0 1755 0 1755 1075 0 1075 0 0 -340z"/>
    </g>
</svg>
